<?plantuml 1.2026.2beta1?><svg xmlns="http://www.w3.org/2000/svg" xmlns:xlink="http://www.w3.org/1999/xlink" contentStyleType="text/css" data-diagram-type="CLASS" height="679px" preserveAspectRatio="none" style="width:992px;height:679px;background:#FFFFFF;" version="1.1" viewBox="0 0 992 679" width="992px" zoomAndPan="magnify"><defs/><g><!--class ExpressionEngine--><g class="entity" data-qualified-name="ExpressionEngine" data-source-line="6" id="ent0002"><rect fill="#F1F1F1" height="64.2969" rx="2.5" ry="2.5" style="stroke:#181818;stroke-width:0.5;" width="246.958" x="357.47" y="64.04"/><ellipse cx="414.5569" cy="80.04" fill="#ADD1B2" rx="11" ry="11" style="stroke:#181818;stroke-width:1;"/><path d="M417.5257,85.6806 Q416.9475,85.9775 416.3069,86.1181 Q415.6663,86.2744 414.9632,86.2744 Q412.4632,86.2744 411.135,84.6338 Q409.8225,82.9775 409.8225,79.8525 Q409.8225,76.7275 411.135,75.0713 Q412.4632,73.415 414.9632,73.415 Q415.6663,73.415 416.3069,73.5713 Q416.9632,73.7275 417.5257,74.0244 L417.5257,76.7431 Q416.9007,76.165 416.3069,75.8994 Q415.7132,75.6181 415.0882,75.6181 Q413.7444,75.6181 413.0569,76.6963 Q412.3694,77.7588 412.3694,79.8525 Q412.3694,81.9463 413.0569,83.0244 Q413.7444,84.0869 415.0882,84.0869 Q415.7132,84.0869 416.3069,83.8213 Q416.9007,83.54 417.5257,82.9619 L417.5257,85.6806 Z " fill="#000000"/><text fill="#000000" font-family="sans-serif" font-size="14" lengthAdjust="spacing" textLength="124.2842" x="435.0569" y="84.8867">ExpressionEngine</text><line style="stroke:#181818;stroke-width:0.5;" x1="358.47" x2="603.428" y1="96.04" y2="96.04"/><line style="stroke:#181818;stroke-width:0.5;" x1="358.47" x2="603.428" y1="104.04" y2="104.04"/><text fill="#000000" font-family="sans-serif" font-size="14" lengthAdjust="spacing" textLength="234.958" x="363.47" y="121.0351">+Evaluate(input : string) : double</text></g><!--class TokenType--><g class="entity" data-qualified-name="TokenType" data-source-line="13" id="ent0003"><rect fill="#F1F1F1" height="178.375" rx="2.5" ry="2.5" style="stroke:#181818;stroke-width:0.5;" width="109.8496" x="639.02" y="7"/><ellipse cx="654.3808" cy="23" fill="#EB937F" rx="11" ry="11" style="stroke:#181818;stroke-width:1;"/><path d="M658.4902,29 L650.7714,29 L650.7714,16.6094 L658.4902,16.6094 L658.4902,18.7656 L653.2245,18.7656 L653.2245,21.4375 L657.9902,21.4375 L657.9902,23.5938 L653.2245,23.5938 L653.2245,26.8438 L658.4902,26.8438 L658.4902,29 Z " fill="#000000"/><text fill="#000000" font-family="sans-serif" font-size="14" lengthAdjust="spacing" textLength="77.0479" x="668.461" y="27.8467">TokenType</text><line style="stroke:#181818;stroke-width:0.5;" x1="640.02" x2="747.8696" y1="39" y2="39"/><text fill="#000000" font-family="sans-serif" font-size="14" lengthAdjust="spacing" textLength="60.9766" x="645.02" y="55.9951">NUMBER</text><text fill="#000000" font-family="sans-serif" font-size="14" lengthAdjust="spacing" textLength="35.376" x="645.02" y="72.292">PLUS</text><text fill="#000000" font-family="sans-serif" font-size="14" lengthAdjust="spacing" textLength="45.8145" x="645.02" y="88.5889">MINUS</text><text fill="#000000" font-family="sans-serif" font-size="14" lengthAdjust="spacing" textLength="67.6006" x="645.02" y="104.8857">MULTIPLY</text><text fill="#000000" font-family="sans-serif" font-size="14" lengthAdjust="spacing" textLength="48.2412" x="645.02" y="121.1826">DIVIDE</text><text fill="#000000" font-family="sans-serif" font-size="14" lengthAdjust="spacing" textLength="87.3154" x="645.02" y="137.4795">LEFT_PAREN</text><text fill="#000000" font-family="sans-serif" font-size="14" lengthAdjust="spacing" textLength="97.8496" x="645.02" y="153.7764">RIGHT_PAREN</text><text fill="#000000" font-family="sans-serif" font-size="14" lengthAdjust="spacing" textLength="27.918" x="645.02" y="170.0732">EOF</text><line style="stroke:#181818;stroke-width:0.5;" x1="640.02" x2="747.8696" y1="177.375" y2="177.375"/></g><!--class Token--><g class="entity" data-qualified-name="Token" data-source-line="24" id="ent0004"><rect fill="#F1F1F1" height="113.1875" rx="2.5" ry="2.5" style="stroke:#181818;stroke-width:0.5;" width="183.5342" x="192.18" y="402.26"/><ellipse cx="258.3416" cy="418.26" fill="#ADD1B2" rx="11" ry="11" style="stroke:#181818;stroke-width:1;"/><path d="M261.3104,423.9006 Q260.7322,424.1975 260.0916,424.3381 Q259.451,424.4944 258.7479,424.4944 Q256.2479,424.4944 254.9197,422.8538 Q253.6072,421.1975 253.6072,418.0725 Q253.6072,414.9475 254.9197,413.2913 Q256.2479,411.635 258.7479,411.635 Q259.451,411.635 260.0916,411.7913 Q260.7479,411.9475 261.3104,412.2444 L261.3104,414.9631 Q260.6854,414.385 260.0916,414.1194 Q259.4979,413.8381 258.8729,413.8381 Q257.5291,413.8381 256.8416,414.9163 Q256.1541,415.9788 256.1541,418.0725 Q256.1541,420.1663 256.8416,421.2444 Q257.5291,422.3069 258.8729,422.3069 Q259.4979,422.3069 260.0916,422.0413 Q260.6854,421.76 261.3104,421.1819 L261.3104,423.9006 Z " fill="#000000"/><text fill="#000000" font-family="sans-serif" font-size="14" lengthAdjust="spacing" textLength="42.7109" x="278.8416" y="423.1067">Token</text><line style="stroke:#181818;stroke-width:0.5;" x1="193.18" x2="374.7142" y1="434.26" y2="434.26"/><text fill="#000000" font-family="sans-serif" font-size="14" lengthAdjust="spacing" textLength="136.7324" x="198.18" y="451.2551">+Type : TokenType</text><text fill="#000000" font-family="sans-serif" font-size="14" lengthAdjust="spacing" textLength="121.0986" x="198.18" y="467.552">+Lexeme : string</text><text fill="#000000" font-family="sans-serif" font-size="14" lengthAdjust="spacing" textLength="171.5342" x="198.18" y="483.8489">+NumericValue : double</text><text fill="#000000" font-family="sans-serif" font-size="14" lengthAdjust="spacing" textLength="98.6084" x="198.18" y="500.1457">+Position : int</text><line style="stroke:#181818;stroke-width:0.5;" x1="193.18" x2="374.7142" y1="507.4475" y2="507.4475"/></g><!--class Lexer--><g class="entity" data-qualified-name="Lexer" data-source-line="31" id="ent0005"><rect fill="#F1F1F1" height="96.8906" rx="2.5" ry="2.5" style="stroke:#181818;stroke-width:0.5;" width="201.4785" x="144.21" y="245.37"/><ellipse cx="221.1656" cy="261.37" fill="#ADD1B2" rx="11" ry="11" style="stroke:#181818;stroke-width:1;"/><path d="M224.1343,267.0106 Q223.5562,267.3075 222.9156,267.4481 Q222.2749,267.6044 221.5718,267.6044 Q219.0718,267.6044 217.7437,265.9638 Q216.4312,264.3075 216.4312,261.1825 Q216.4312,258.0575 217.7437,256.4013 Q219.0718,254.745 221.5718,254.745 Q222.2749,254.745 222.9156,254.9013 Q223.5718,255.0575 224.1343,255.3544 L224.1343,258.0731 Q223.5093,257.495 222.9156,257.2294 Q222.3218,256.9481 221.6968,256.9481 Q220.3531,256.9481 219.6656,258.0263 Q218.9781,259.0888 218.9781,261.1825 Q218.9781,263.2763 219.6656,264.3544 Q220.3531,265.4169 221.6968,265.4169 Q222.3218,265.4169 222.9156,265.1513 Q223.5093,264.87 224.1343,264.2919 L224.1343,267.0106 Z " fill="#000000"/><text fill="#000000" font-family="sans-serif" font-size="14" lengthAdjust="spacing" textLength="39.0674" x="241.6656" y="266.2167">Lexer</text><line style="stroke:#181818;stroke-width:0.5;" x1="145.21" x2="344.6885" y1="277.37" y2="277.37"/><text fill="#000000" font-family="sans-serif" font-size="14" lengthAdjust="spacing" textLength="94.8691" x="150.21" y="294.3651">-input : string</text><text fill="#000000" font-family="sans-serif" font-size="14" lengthAdjust="spacing" textLength="92.374" x="150.21" y="310.662">-position : int</text><line style="stroke:#181818;stroke-width:0.5;" x1="145.21" x2="344.6885" y1="317.9638" y2="317.9638"/><text fill="#000000" font-family="sans-serif" font-size="14" lengthAdjust="spacing" textLength="189.4785" x="150.21" y="334.9589">+Tokenize() : List&lt;Token&gt;</text></g><!--class Parser--><g class="entity" data-qualified-name="Parser" data-source-line="40" id="ent0006"><rect fill="#F1F1F1" height="96.8906" rx="2.5" ry="2.5" style="stroke:#181818;stroke-width:0.5;" width="199.7969" x="381.05" y="245.37"/><ellipse cx="454.4782" cy="261.37" fill="#ADD1B2" rx="11" ry="11" style="stroke:#181818;stroke-width:1;"/><path d="M457.447,267.0106 Q456.8688,267.3075 456.2282,267.4481 Q455.5876,267.6044 454.8845,267.6044 Q452.3845,267.6044 451.0563,265.9638 Q449.7438,264.3075 449.7438,261.1825 Q449.7438,258.0575 451.0563,256.4013 Q452.3845,254.745 454.8845,254.745 Q455.5876,254.745 456.2282,254.9013 Q456.8845,255.0575 457.447,255.3544 L457.447,258.0731 Q456.822,257.495 456.2282,257.2294 Q455.6345,256.9481 455.0095,256.9481 Q453.6657,256.9481 452.9782,258.0263 Q452.2907,259.0888 452.2907,261.1825 Q452.2907,263.2763 452.9782,264.3544 Q453.6657,265.4169 455.0095,265.4169 Q455.6345,265.4169 456.2282,265.1513 Q456.822,264.87 457.447,264.2919 L457.447,267.0106 Z " fill="#000000"/><text fill="#000000" font-family="sans-serif" font-size="14" lengthAdjust="spacing" textLength="44.4404" x="474.9782" y="266.2167">Parser</text><line style="stroke:#181818;stroke-width:0.5;" x1="382.05" x2="579.8469" y1="277.37" y2="277.37"/><text fill="#000000" font-family="sans-serif" font-size="14" lengthAdjust="spacing" textLength="156.2559" x="387.05" y="294.3651">-tokens : List&lt;Token&gt;</text><text fill="#000000" font-family="sans-serif" font-size="14" lengthAdjust="spacing" textLength="87.9785" x="387.05" y="310.662">-current : int</text><line style="stroke:#181818;stroke-width:0.5;" x1="382.05" x2="579.8469" y1="317.9638" y2="317.9638"/><text fill="#000000" font-family="sans-serif" font-size="14" lengthAdjust="spacing" textLength="187.7969" x="387.05" y="334.9589">+Parse() : ExpressionNode</text></g><!--class Grammar--><g class="entity" data-qualified-name="Grammar" data-source-line="46" id="ent0007"><rect fill="#F1F1F1" height="56.2656" rx="2.5" ry="2.5" style="stroke:#181818;stroke-width:0.5;" width="133.5684" x="784.17" y="68.05"/><ellipse cx="799.17" cy="88.1828" fill="#ADD1B2" rx="11" ry="11" style="stroke:#181818;stroke-width:1;"/><path d="M802.1388,93.8234 Q801.5606,94.1203 800.92,94.2609 Q800.2794,94.4172 799.5763,94.4172 Q797.0763,94.4172 795.7481,92.7766 Q794.4356,91.1203 794.4356,87.9953 Q794.4356,84.8703 795.7481,83.2141 Q797.0763,81.5578 799.5763,81.5578 Q800.2794,81.5578 800.92,81.7141 Q801.5763,81.8703 802.1388,82.1672 L802.1388,84.8859 Q801.5138,84.3078 800.92,84.0422 Q800.3263,83.7609 799.7013,83.7609 Q798.3575,83.7609 797.67,84.8391 Q796.9825,85.9016 796.9825,87.9953 Q796.9825,90.0891 797.67,91.1672 Q798.3575,92.2297 799.7013,92.2297 Q800.3263,92.2297 800.92,91.9641 Q801.5138,91.6828 802.1388,91.1047 L802.1388,93.8234 Z " fill="#000000"/><text fill="#000000" font-family="sans-serif" font-size="12" font-style="italic" lengthAdjust="spacing" textLength="105.5684" x="811.17" y="84.1887">&#171;documentation&#187;</text><text fill="#000000" font-family="sans-serif" font-size="14" lengthAdjust="spacing" textLength="66.7939" x="830.5572" y="100.0139">Grammar</text><line style="stroke:#181818;stroke-width:0.5;" x1="785.17" x2="916.7384" y1="108.3156" y2="108.3156"/><line style="stroke:#181818;stroke-width:0.5;" x1="785.17" x2="916.7384" y1="116.3156" y2="116.3156"/></g><!--class ExpressionNode--><g class="entity" data-qualified-name="ExpressionNode" data-source-line="51" id="ent0008"><rect fill="#F1F1F1" height="48" rx="2.5" ry="2.5" style="stroke:#181818;stroke-width:0.5;" width="144.8408" x="585.53" y="434.86"/><ellipse cx="600.53" cy="450.86" fill="#A9DCDF" rx="11" ry="11" style="stroke:#181818;stroke-width:1;"/><path d="M600.6394,446.2038 L599.4831,451.2819 L601.8113,451.2819 L600.6394,446.2038 Z M599.155,443.9694 L602.1394,443.9694 L605.4988,456.36 L603.0456,456.36 L602.28,453.2975 L598.9988,453.2975 L598.2488,456.36 L595.8113,456.36 L599.155,443.9694 Z " fill="#000000"/><text fill="#000000" font-family="sans-serif" font-size="14" font-style="italic" lengthAdjust="spacing" textLength="112.8408" x="614.53" y="455.7067">ExpressionNode</text><line style="stroke:#181818;stroke-width:0.5;" x1="586.53" x2="729.3708" y1="466.86" y2="466.86"/><line style="stroke:#181818;stroke-width:0.5;" x1="586.53" x2="729.3708" y1="474.86" y2="474.86"/></g><!--class LiteralExpression--><g class="entity" data-qualified-name="LiteralExpression" data-source-line="53" id="ent0009"><rect fill="#F1F1F1" height="64.2969" rx="2.5" ry="2.5" style="stroke:#181818;stroke-width:0.5;" width="152.3193" x="364.79" y="591.75"/><ellipse cx="379.79" cy="607.75" fill="#ADD1B2" rx="11" ry="11" style="stroke:#181818;stroke-width:1;"/><path d="M382.7588,613.3906 Q382.1806,613.6875 381.54,613.8281 Q380.8994,613.9844 380.1963,613.9844 Q377.6963,613.9844 376.3681,612.3438 Q375.0556,610.6875 375.0556,607.5625 Q375.0556,604.4375 376.3681,602.7813 Q377.6963,601.125 380.1963,601.125 Q380.8994,601.125 381.54,601.2813 Q382.1963,601.4375 382.7588,601.7344 L382.7588,604.4531 Q382.1338,603.875 381.54,603.6094 Q380.9463,603.3281 380.3213,603.3281 Q378.9775,603.3281 378.29,604.4063 Q377.6025,605.4688 377.6025,607.5625 Q377.6025,609.6563 378.29,610.7344 Q378.9775,611.7969 380.3213,611.7969 Q380.9463,611.7969 381.54,611.5313 Q382.1338,611.25 382.7588,610.6719 L382.7588,613.3906 Z " fill="#000000"/><text fill="#000000" font-family="sans-serif" font-size="14" lengthAdjust="spacing" textLength="120.3193" x="393.79" y="612.5967">LiteralExpression</text><line style="stroke:#181818;stroke-width:0.5;" x1="365.79" x2="516.1093" y1="623.75" y2="623.75"/><text fill="#000000" font-family="sans-serif" font-size="14" lengthAdjust="spacing" textLength="112.5947" x="370.79" y="640.7451">+Value : double</text><line style="stroke:#181818;stroke-width:0.5;" x1="365.79" x2="516.1093" y1="648.0469" y2="648.0469"/></g><!--class UnaryExpression--><g class="entity" data-qualified-name="UnaryExpression" data-source-line="57" id="ent0010"><rect fill="#F1F1F1" height="80.5938" rx="2.5" ry="2.5" style="stroke:#181818;stroke-width:0.5;" width="210.8027" x="552.55" y="583.6"/><ellipse cx="594.8919" cy="599.6" fill="#ADD1B2" rx="11" ry="11" style="stroke:#181818;stroke-width:1;"/><path d="M597.8606,605.2406 Q597.2825,605.5375 596.6419,605.6781 Q596.0013,605.8344 595.2981,605.8344 Q592.7981,605.8344 591.47,604.1938 Q590.1575,602.5375 590.1575,599.4125 Q590.1575,596.2875 591.47,594.6313 Q592.7981,592.975 595.2981,592.975 Q596.0013,592.975 596.6419,593.1313 Q597.2981,593.2875 597.8606,593.5844 L597.8606,596.3031 Q597.2356,595.725 596.6419,595.4594 Q596.0481,595.1781 595.4231,595.1781 Q594.0794,595.1781 593.3919,596.2563 Q592.7044,597.3188 592.7044,599.4125 Q592.7044,601.5063 593.3919,602.5844 Q594.0794,603.6469 595.4231,603.6469 Q596.0481,603.6469 596.6419,603.3813 Q597.2356,603.1 597.8606,602.5219 L597.8606,605.2406 Z " fill="#000000"/><text fill="#000000" font-family="sans-serif" font-size="14" lengthAdjust="spacing" textLength="118.043" x="614.9679" y="604.4467">UnaryExpression</text><line style="stroke:#181818;stroke-width:0.5;" x1="553.55" x2="762.3527" y1="615.6" y2="615.6"/><text fill="#000000" font-family="sans-serif" font-size="14" lengthAdjust="spacing" textLength="165.0605" x="558.55" y="632.5951">+Operator : TokenType</text><text fill="#000000" font-family="sans-serif" font-size="14" lengthAdjust="spacing" textLength="198.8027" x="558.55" y="648.892">+Operand : ExpressionNode</text><line style="stroke:#181818;stroke-width:0.5;" x1="553.55" x2="762.3527" y1="656.1938" y2="656.1938"/></g><!--class BinaryExpression--><g class="entity" data-qualified-name="BinaryExpression" data-source-line="62" id="ent0011"><rect fill="#F1F1F1" height="96.8906" rx="2.5" ry="2.5" style="stroke:#181818;stroke-width:0.5;" width="187.0547" x="798.42" y="575.45"/><ellipse cx="828.6141" cy="591.45" fill="#ADD1B2" rx="11" ry="11" style="stroke:#181818;stroke-width:1;"/><path d="M831.5828,597.0906 Q831.0047,597.3875 830.3641,597.5281 Q829.7235,597.6844 829.0203,597.6844 Q826.5203,597.6844 825.1922,596.0438 Q823.8797,594.3875 823.8797,591.2625 Q823.8797,588.1375 825.1922,586.4813 Q826.5203,584.825 829.0203,584.825 Q829.7235,584.825 830.3641,584.9813 Q831.0203,585.1375 831.5828,585.4344 L831.5828,588.1531 Q830.9578,587.575 830.3641,587.3094 Q829.7703,587.0281 829.1453,587.0281 Q827.8016,587.0281 827.1141,588.1063 Q826.4266,589.1688 826.4266,591.2625 Q826.4266,593.3563 827.1141,594.4344 Q827.8016,595.4969 829.1453,595.4969 Q829.7703,595.4969 830.3641,595.2313 Q830.9578,594.95 831.5828,594.3719 L831.5828,597.0906 Z " fill="#000000"/><text fill="#000000" font-family="sans-serif" font-size="14" lengthAdjust="spacing" textLength="121.29" x="845.9906" y="596.2967">BinaryExpression</text><line style="stroke:#181818;stroke-width:0.5;" x1="799.42" x2="984.4747" y1="607.45" y2="607.45"/><text fill="#000000" font-family="sans-serif" font-size="14" lengthAdjust="spacing" textLength="165.0605" x="804.42" y="624.4451">+Operator : TokenType</text><text fill="#000000" font-family="sans-serif" font-size="14" lengthAdjust="spacing" textLength="165.0195" x="804.42" y="640.742">+Left : ExpressionNode</text><text fill="#000000" font-family="sans-serif" font-size="14" lengthAdjust="spacing" textLength="175.0547" x="804.42" y="657.0389">+Right : ExpressionNode</text><line style="stroke:#181818;stroke-width:0.5;" x1="799.42" x2="984.4747" y1="664.3406" y2="664.3406"/></g><!--class Evaluator--><g class="entity" data-qualified-name="Evaluator" data-source-line="71" id="ent0012"><rect fill="#F1F1F1" height="64.2969" rx="2.5" ry="2.5" style="stroke:#181818;stroke-width:0.5;" width="318.5371" x="615.68" y="261.67"/><ellipse cx="737.2674" cy="277.67" fill="#ADD1B2" rx="11" ry="11" style="stroke:#181818;stroke-width:1;"/><path d="M740.2362,283.3106 Q739.658,283.6075 739.0174,283.7481 Q738.3768,283.9044 737.6737,283.9044 Q735.1737,283.9044 733.8455,282.2638 Q732.533,280.6075 732.533,277.4825 Q732.533,274.3575 733.8455,272.7013 Q735.1737,271.045 737.6737,271.045 Q738.3768,271.045 739.0174,271.2013 Q739.6737,271.3575 740.2362,271.6544 L740.2362,274.3731 Q739.6112,273.795 739.0174,273.5294 Q738.4237,273.2481 737.7987,273.2481 Q736.4549,273.2481 735.7674,274.3263 Q735.0799,275.3888 735.0799,277.4825 Q735.0799,279.5763 735.7674,280.6544 Q736.4549,281.7169 737.7987,281.7169 Q738.4237,281.7169 739.0174,281.4513 Q739.6112,281.17 740.2362,280.5919 L740.2362,283.3106 Z " fill="#000000"/><text fill="#000000" font-family="sans-serif" font-size="14" lengthAdjust="spacing" textLength="66.8623" x="757.7674" y="282.5167">Evaluator</text><line style="stroke:#181818;stroke-width:0.5;" x1="616.68" x2="933.2171" y1="293.67" y2="293.67"/><line style="stroke:#181818;stroke-width:0.5;" x1="616.68" x2="933.2171" y1="301.67" y2="301.67"/><text fill="#000000" font-family="sans-serif" font-size="14" lengthAdjust="spacing" textLength="306.5371" x="621.68" y="318.6651">+Evaluate(node : ExpressionNode) : double</text></g><!--class LexicalException--><g class="entity" data-qualified-name="LexicalException" data-source-line="78" id="ent0013"><rect fill="#F1F1F1" height="48" rx="2.5" ry="2.5" style="stroke:#181818;stroke-width:0.5;" width="149.8994" x="7" y="434.86"/><ellipse cx="22" cy="450.86" fill="#ADD1B2" rx="11" ry="11" style="stroke:#181818;stroke-width:1;"/><path d="M24.9688,456.5006 Q24.3906,456.7975 23.75,456.9381 Q23.1094,457.0944 22.4063,457.0944 Q19.9063,457.0944 18.5781,455.4538 Q17.2656,453.7975 17.2656,450.6725 Q17.2656,447.5475 18.5781,445.8913 Q19.9063,444.235 22.4063,444.235 Q23.1094,444.235 23.75,444.3913 Q24.4063,444.5475 24.9688,444.8444 L24.9688,447.5631 Q24.3438,446.985 23.75,446.7194 Q23.1563,446.4381 22.5313,446.4381 Q21.1875,446.4381 20.5,447.5163 Q19.8125,448.5788 19.8125,450.6725 Q19.8125,452.7663 20.5,453.8444 Q21.1875,454.9069 22.5313,454.9069 Q23.1563,454.9069 23.75,454.6413 Q24.3438,454.36 24.9688,453.7819 L24.9688,456.5006 Z " fill="#000000"/><text fill="#000000" font-family="sans-serif" font-size="14" lengthAdjust="spacing" textLength="117.8994" x="36" y="455.7067">LexicalException</text><line style="stroke:#181818;stroke-width:0.5;" x1="8" x2="155.8994" y1="466.86" y2="466.86"/><line style="stroke:#181818;stroke-width:0.5;" x1="8" x2="155.8994" y1="474.86" y2="474.86"/></g><!--class ParseException--><g class="entity" data-qualified-name="ParseException" data-source-line="79" id="ent0014"><rect fill="#F1F1F1" height="48" rx="2.5" ry="2.5" style="stroke:#181818;stroke-width:0.5;" width="139.8301" x="411.03" y="434.86"/><ellipse cx="426.03" cy="450.86" fill="#ADD1B2" rx="11" ry="11" style="stroke:#181818;stroke-width:1;"/><path d="M428.9988,456.5006 Q428.4206,456.7975 427.78,456.9381 Q427.1394,457.0944 426.4363,457.0944 Q423.9363,457.0944 422.6081,455.4538 Q421.2956,453.7975 421.2956,450.6725 Q421.2956,447.5475 422.6081,445.8913 Q423.9363,444.235 426.4363,444.235 Q427.1394,444.235 427.78,444.3913 Q428.4363,444.5475 428.9988,444.8444 L428.9988,447.5631 Q428.3738,446.985 427.78,446.7194 Q427.1863,446.4381 426.5613,446.4381 Q425.2175,446.4381 424.53,447.5163 Q423.8425,448.5788 423.8425,450.6725 Q423.8425,452.7663 424.53,453.8444 Q425.2175,454.9069 426.5613,454.9069 Q427.1863,454.9069 427.78,454.6413 Q428.3738,454.36 428.9988,453.7819 L428.9988,456.5006 Z " fill="#000000"/><text fill="#000000" font-family="sans-serif" font-size="14" lengthAdjust="spacing" textLength="107.8301" x="440.03" y="455.7067">ParseException</text><line style="stroke:#181818;stroke-width:0.5;" x1="412.03" x2="549.8601" y1="466.86" y2="466.86"/><line style="stroke:#181818;stroke-width:0.5;" x1="412.03" x2="549.8601" y1="474.86" y2="474.86"/></g><!--class EvaluationException--><g class="entity" data-qualified-name="EvaluationException" data-source-line="80" id="ent0015"><rect fill="#F1F1F1" height="48" rx="2.5" ry="2.5" style="stroke:#181818;stroke-width:0.5;" width="175.0146" x="765.44" y="434.86"/><ellipse cx="780.44" cy="450.86" fill="#ADD1B2" rx="11" ry="11" style="stroke:#181818;stroke-width:1;"/><path d="M783.4088,456.5006 Q782.8306,456.7975 782.19,456.9381 Q781.5494,457.0944 780.8463,457.0944 Q778.3463,457.0944 777.0181,455.4538 Q775.7056,453.7975 775.7056,450.6725 Q775.7056,447.5475 777.0181,445.8913 Q778.3463,444.235 780.8463,444.235 Q781.5494,444.235 782.19,444.3913 Q782.8463,444.5475 783.4088,444.8444 L783.4088,447.5631 Q782.7838,446.985 782.19,446.7194 Q781.5963,446.4381 780.9713,446.4381 Q779.6275,446.4381 778.94,447.5163 Q778.2525,448.5788 778.2525,450.6725 Q778.2525,452.7663 778.94,453.8444 Q779.6275,454.9069 780.9713,454.9069 Q781.5963,454.9069 782.19,454.6413 Q782.7838,454.36 783.4088,453.7819 L783.4088,456.5006 Z " fill="#000000"/><text fill="#000000" font-family="sans-serif" font-size="14" lengthAdjust="spacing" textLength="143.0146" x="794.44" y="455.7067">EvaluationException</text><line style="stroke:#181818;stroke-width:0.5;" x1="766.44" x2="939.4546" y1="466.86" y2="466.86"/><line style="stroke:#181818;stroke-width:0.5;" x1="766.44" x2="939.4546" y1="474.86" y2="474.86"/></g><!--link ExpressionEngine to Lexer--><g class="link" data-entity-1="ent0002" data-entity-2="ent0005" data-link-type="dependency" data-source-line="87" id="lnk16"><path codeLine="87" d="M443.03,128.62 C405.12,160.05 350.929,204.9606 307.229,241.1906" fill="none" id="ExpressionEngine-to-Lexer" style="stroke:#181818;stroke-width:1;"/><polygon fill="#181818" points="302.61,245.02,312.0915,242.3552,306.4592,241.8288,306.9856,236.1965,302.61,245.02" style="stroke:#181818;stroke-width:1;"/></g><!--link ExpressionEngine to Parser--><g class="link" data-entity-1="ent0002" data-entity-2="ent0006" data-link-type="dependency" data-source-line="88" id="lnk17"><path codeLine="88" d="M480.95,128.62 C480.95,160.05 480.95,202.79 480.95,239.02" fill="none" id="ExpressionEngine-to-Parser" style="stroke:#181818;stroke-width:1;"/><polygon fill="#181818" points="480.95,245.02,484.95,236.02,480.95,240.02,476.95,236.02,480.95,245.02" style="stroke:#181818;stroke-width:1;"/></g><!--link ExpressionEngine to Evaluator--><g class="link" data-entity-1="ent0002" data-entity-2="ent0012" data-link-type="dependency" data-source-line="89" id="lnk18"><path codeLine="89" d="M528.19,128.62 C583.05,165.12 668.0248,221.6662 722.8348,258.1362" fill="none" id="ExpressionEngine-to-Evaluator" style="stroke:#181818;stroke-width:1;"/><polygon fill="#181818" points="727.83,261.46,722.553,253.1442,723.6673,258.6902,718.1213,259.8045,727.83,261.46" style="stroke:#181818;stroke-width:1;"/></g><!--reverse link Lexer to Token--><g class="link" data-entity-1="ent0005" data-entity-2="ent0004" data-link-type="composition" data-source-line="92" id="lnk19"><path codeLine="92" d="M259.1267,354.0796 C263.5867,372.6896 265.93,382.5 270.55,401.85" fill="none" id="Lexer-backto-Token" style="stroke:#181818;stroke-width:1;"/><polygon fill="#181818" points="256.33,342.41,253.8385,349.177,259.1267,354.0796,261.6182,347.3126,256.33,342.41" style="stroke:#181818;stroke-width:1;"/></g><!--reverse link Parser to Token--><g class="link" data-entity-1="ent0006" data-entity-2="ent0004" data-link-type="aggregation" data-source-line="95" id="lnk20"><path codeLine="95" d="M413.9265,350.2822 C391.4465,368.8922 374.78,382.68 351.45,401.99" fill="none" id="Parser-backto-Token" style="stroke:#181818;stroke-width:1;"/><polygon fill="none" points="423.17,342.63,415.9975,343.3749,413.9265,350.2822,421.099,349.5373,423.17,342.63" style="stroke:#181818;stroke-width:1;"/></g><!--reverse link Parser to ExpressionNode--><g class="link" data-entity-1="ent0006" data-entity-2="ent0008" data-link-type="composition" data-source-line="96" id="lnk21"><path codeLine="96" d="M541.446,350.5403 C574.306,380.8103 606.58,410.54 632.56,434.46" fill="none" id="Parser-backto-ExpressionNode" style="stroke:#181818;stroke-width:1;"/><polygon fill="#181818" points="532.62,342.41,534.3229,349.4172,541.446,350.5403,539.7431,343.5332,532.62,342.41" style="stroke:#181818;stroke-width:1;"/></g><!--reverse link ExpressionNode to LiteralExpression--><g class="link" data-entity-1="ent0008" data-entity-2="ent0009" data-link-type="extension" data-source-line="99" id="lnk22"><path codeLine="99" d="M612.4696,494.0328 C574.6196,522.4728 524.92,559.8 482.77,591.47" fill="none" id="ExpressionNode-backto-LiteralExpression" style="stroke:#181818;stroke-width:1;"/><polygon fill="none" points="626.86,483.22,608.8653,489.236,616.0738,498.8296,626.86,483.22" style="stroke:#181818;stroke-width:1;"/></g><!--reverse link ExpressionNode to UnaryExpression--><g class="link" data-entity-1="ent0008" data-entity-2="ent0010" data-link-type="extension" data-source-line="100" id="lnk23"><path codeLine="100" d="M646.0125,501.0198 C642.0925,527.0798 644.15,551.89 646.83,583.21" fill="none" id="ExpressionNode-backto-UnaryExpression" style="stroke:#181818;stroke-width:1;"/><polygon fill="none" points="648.69,483.22,640.0793,500.1273,651.9458,501.9122,648.69,483.22" style="stroke:#181818;stroke-width:1;"/></g><!--reverse link UnaryExpression to ExpressionNode--><g class="link" data-entity-1="ent0010" data-entity-2="ent0008" data-link-type="composition" data-source-line="104" id="lnk25"><path codeLine="104" d="M670.8099,571.2587 C673.6399,539.9387 671.9,509.28 667.75,483.22" fill="none" id="UnaryExpression-backto-ExpressionNode" style="stroke:#181818;stroke-width:1;"/><polygon fill="#181818" points="669.73,583.21,674.2537,577.5943,670.8099,571.2587,666.2862,576.8744,669.73,583.21" style="stroke:#181818;stroke-width:1;"/></g><!--reverse link ExpressionNode to BinaryExpression--><g class="link" data-entity-1="ent0008" data-entity-2="ent0011" data-link-type="extension" data-source-line="101" id="lnk24"><path codeLine="101" d="M696.4253,494.2748 C727.0853,518.1348 766.21,544.81 811.55,575.05" fill="none" id="ExpressionNode-backto-BinaryExpression" style="stroke:#181818;stroke-width:1;"/><polygon fill="none" points="682.22,483.22,692.7404,499.0099,700.1103,489.5397,682.22,483.22" style="stroke:#181818;stroke-width:1;"/></g><!--reverse link BinaryExpression to ExpressionNode--><g class="link" data-entity-1="ent0011" data-entity-2="ent0008" data-link-type="composition" data-source-line="105" id="lnk26"><path codeLine="105" d="M826.0138,567.9663 C784.6638,537.7263 739.32,507.08 701.28,483.22" fill="none" id="BinaryExpression-backto-ExpressionNode" style="stroke:#181818;stroke-width:1;"/><polygon fill="#181818" points="835.7,575.05,833.2181,568.2794,826.0138,567.9663,828.4957,574.7369,835.7,575.05" style="stroke:#181818;stroke-width:1;"/></g><!--link Evaluator to ExpressionNode--><g class="link" data-entity-1="ent0012" data-entity-2="ent0008" data-link-type="dependency" data-source-line="108" id="lnk27"><path codeLine="108" d="M752.39,326.25 C729.68,357.9 698.6683,401.1154 678.2583,429.5554" fill="none" id="Evaluator-to-ExpressionNode" style="stroke:#181818;stroke-width:1;"/><polygon fill="#181818" points="674.76,434.43,683.2572,429.4502,677.6752,430.3678,676.7577,424.7859,674.76,434.43" style="stroke:#181818;stroke-width:1;"/></g><!--link Lexer to LexicalException--><g class="link" data-entity-1="ent0005" data-entity-2="ent0013" data-link-type="dependency" data-source-line="111" id="lnk28"><path codeLine="111" d="M197.37,342.41 C167.11,372.68 133.5035,406.2982 109.5735,430.2182" fill="none" id="Lexer-to-LexicalException" style="stroke:#181818;stroke-width:1;stroke-dasharray:7,7;"/><polygon fill="#181818" points="105.33,434.46,114.5231,430.9264,108.8663,430.9252,108.8675,425.2684,105.33,434.46" style="stroke:#181818;stroke-width:1;"/></g><!--link Parser to ParseException--><g class="link" data-entity-1="ent0006" data-entity-2="ent0014" data-link-type="dependency" data-source-line="112" id="lnk29"><path codeLine="112" d="M480.95,342.41 C480.95,372.68 480.95,404.54 480.95,428.46" fill="none" id="Parser-to-ParseException" style="stroke:#181818;stroke-width:1;stroke-dasharray:7,7;"/><polygon fill="#181818" points="480.95,434.46,484.95,425.46,480.95,429.46,476.95,425.46,480.95,434.46" style="stroke:#181818;stroke-width:1;"/></g><!--link Evaluator to EvaluationException--><g class="link" data-entity-1="ent0012" data-entity-2="ent0015" data-link-type="dependency" data-source-line="113" id="lnk30"><path codeLine="113" d="M789.99,326.25 C805.13,357.9 825.54,400.5778 839.15,429.0178" fill="none" id="Evaluator-to-EvaluationException" style="stroke:#181818;stroke-width:1;stroke-dasharray:7,7;"/><polygon fill="#181818" points="841.74,434.43,841.4631,424.585,839.5817,429.9198,834.2469,428.0384,841.74,434.43" style="stroke:#181818;stroke-width:1;"/></g><?plantuml-src bLJ9Rjim4BthAtXhsi91pu5hm47aL83Y25u2v5JGrDGcOf42IHLnbt_la9HCMrBbH2Tg5hutZpEZNxWegQ85ONkgzTGOnJULWOH9iUI_W7o9eW_aw_y-z6NLPiyPcL56SnYCTGWaVYqLQCsbYCMM2o2_8uBVv_WdtLVKm1KIgWov8HgfYEr7FEKICI3wUubA2g-OCHW4eYh8Ihw0M1tA1dk-VhYD5-wOfUkbEpmay-QqJbT9bZwxdxlaARcBtJ6DPwllsNGHpztl8hd_TleVFyuiOr-qGsmgTSWtWOMt8daeu5YtDywh0XHdJoWD126SAvEQ6rGHpLoO06NlKJNKw5nBRolF4pqbomMV-yhAdN9jniuokQnvHfM-9BedPYC3CsFlroqqvs6LKY3CAJsNwhY5xfdB74BLzzZ21LLaFCubGz64eRR6oUGI_-boDHX1DwWTPOQqkzVXDvfp0uhkWxDvwjR37Uck1LM7RlXZYTSOgRhTuJmY7r3Wbh_tpXH-cEw5phNWsvtf1HjMinvYZ7_B9l31KdLMW42m3lfxDa6ib5Jw3Hpioc3svHYKZlP9hxQDeRZWkS1Z0NkNe7Uy7AQ3Jhz2IQL1HvqjEHfD_6Ztk_nmzVkEEaTXH_ejyMaqyaqHdKnoFQVowAiDDhZT_cv-S4vtkAKC5GoYymWo_eDPdV7eZMhDH6zCkyaR1amMpLgBshFLmxipA_srXGSdEPGWSX3i48MsTU9sisplXGIEh-dLlhwUTFkj5jVwMaqNSAopf_d-0G00?></g></svg>